<svg width="80" height="26" viewBox="0 0 80 26" fill="none" xmlns="http://www.w3.org/2000/svg">
<g clip-path="url(#clip0_0_3108)">
<g clip-path="url(#clip1_0_3108)">
<path d="M34.79 10.7209C35.3392 9.77464 36.3306 9.36462 37.4229 9.27072C40.269 9.0412 42.1195 11.3051 42.1216 13.9738C42.1216 15.4959 42.1216 18.0728 42.1216 19.3988C42.1216 19.6202 42.0331 19.8325 41.8755 19.989C41.718 20.1455 41.5042 20.2334 41.2814 20.2334H39.7743C39.7568 20.2334 39.74 20.2265 39.7276 20.2142C39.7152 20.2019 39.7082 20.1852 39.7082 20.1677C39.7145 18.1368 39.7145 16.1473 39.7082 14.1991C39.7082 13.7662 39.6798 13.2706 39.5086 12.8731C39.1151 11.9565 38.4252 11.4696 37.4386 11.4126C35.69 11.3155 34.7553 12.4559 34.7522 14.0865C34.749 15.7171 34.7522 17.5209 34.7522 19.3988C34.7522 19.6202 34.6636 19.8325 34.5061 19.989C34.3485 20.1455 34.1348 20.2334 33.912 20.2334H32.4101C32.4006 20.2348 32.3908 20.234 32.3816 20.231C32.3725 20.228 32.3641 20.2229 32.3573 20.2161C32.3504 20.2093 32.3453 20.201 32.3423 20.1919C32.3392 20.1828 32.3384 20.1731 32.3398 20.1636V5.92601C32.3386 5.91631 32.3396 5.90646 32.3428 5.89723C32.3461 5.88799 32.3514 5.87961 32.3584 5.87275C32.3654 5.86589 32.3739 5.86072 32.3832 5.85765C32.3926 5.85458 32.4025 5.85369 32.4122 5.85505H33.076C33.5216 5.85505 33.9491 6.03091 34.2642 6.34396C34.5793 6.657 34.7564 7.08158 34.7564 7.52429C34.7564 8.65311 34.7564 9.92381 34.7375 10.7084C34.7354 10.7793 34.7532 10.7845 34.79 10.7209Z" fill="#98F2E2"/>
<path d="M54.8895 14.922C54.8892 16.4141 54.2924 17.845 53.2303 18.9001C52.1682 19.9552 50.7277 20.548 49.2257 20.5483C47.7235 20.5483 46.2829 19.9555 45.2207 18.9004C44.1585 17.8452 43.5618 16.4142 43.5618 14.922C43.5618 13.4297 44.1585 11.9987 45.2207 10.9435C46.2829 9.88836 47.7235 9.29556 49.2257 9.29556C50.7277 9.29584 52.1682 9.88872 53.2303 10.9438C54.2924 11.9989 54.8892 13.4298 54.8895 14.922ZM49.2267 18.3908C50.9795 18.3908 52.4005 16.8374 52.4005 14.922C52.4005 13.0065 50.9795 11.4531 49.2267 11.4531C47.4739 11.4531 46.0529 13.0065 46.0529 14.922C46.0529 16.8374 47.4739 18.3908 49.2267 18.3908Z" fill="#98F2E2"/>
<path d="M67.1319 14.922C67.1316 16.4141 66.5348 17.845 65.4727 18.9001C64.4106 19.9552 62.9701 20.548 61.468 20.5483C59.9659 20.5483 58.5252 19.9555 57.4631 18.9004C56.4009 17.8452 55.8041 16.4142 55.8041 14.922C55.8041 14.1831 55.9506 13.4514 56.2353 12.7688C56.5199 12.0862 56.9371 11.466 57.4631 10.9435C57.989 10.421 58.6134 10.0066 59.3005 9.72385C59.9877 9.4411 60.7242 9.29556 61.468 9.29556C62.2118 9.29556 62.9483 9.4411 63.6355 9.72385C64.3227 10.0066 64.9471 10.421 65.473 10.9435C65.9989 11.466 66.4161 12.0862 66.7008 12.7688C66.9854 13.4514 67.1319 14.1831 67.1319 14.922ZM61.468 18.3919C63.2188 18.3919 64.6397 16.8384 64.6397 14.922C64.6397 13.0055 63.2188 11.452 61.468 11.452C59.7162 11.452 58.2963 13.0055 58.2963 14.922C58.2963 16.8384 59.7162 18.3919 61.468 18.3919Z" fill="#98F2E2"/>
<path d="M70.8876 19.2588V22.7152C70.8876 22.9365 70.7991 23.1488 70.6415 23.3053C70.484 23.4619 70.2703 23.5498 70.0474 23.5498H68.5172C68.5118 23.5499 68.5063 23.549 68.5012 23.547C68.4962 23.545 68.4915 23.5421 68.4876 23.5383C68.4837 23.5345 68.4806 23.5299 68.4785 23.5249C68.4763 23.5199 68.4752 23.5145 68.4752 23.5091C68.4675 20.5754 68.4703 17.689 68.4836 14.8499C68.492 12.9939 69.4016 11.1787 70.9979 10.1656C72.1759 9.40103 73.6083 9.1247 74.9888 9.39572C78.7045 10.0613 80.6663 14.0247 79.0531 17.3861C77.6238 20.3657 74.0488 21.5592 71.2499 19.5196L70.8876 19.2588ZM73.9658 18.3919C75.7166 18.3919 77.1375 16.8384 77.1375 14.9219C77.1375 13.0054 75.7166 11.452 73.9658 11.452C72.2151 11.452 70.7941 13.0054 70.7941 14.9219C70.7941 16.8384 72.2141 18.3919 73.9658 18.3919Z" fill="#98F2E2"/>
<path d="M25.999 11.0934C26 8.66671 25.2049 6.30669 23.7357 4.37529C22.2665 2.4439 20.2042 1.04778 17.8652 0.40105C15.5262 -0.245678 13.0397 -0.1073 10.7869 0.79496C8.53414 1.69722 6.63954 3.31354 5.39369 5.39603C3.94675 6.26193 2.71635 7.44641 1.79607 8.85936C0.875788 10.2723 0.289871 11.8765 0.0828844 13.55C-0.124102 15.2235 0.0532924 16.9221 0.601576 18.5167C1.14986 20.1113 2.05459 21.5598 3.24695 22.7521C4.43931 23.9445 5.8879 24.8492 7.48252 25.3975C9.07715 25.9457 10.7758 26.1231 12.4493 25.9161C14.1228 25.7092 15.7271 25.1233 17.1401 24.203C18.5531 23.2827 19.7376 22.0524 20.6035 20.6055C22.2481 19.6213 23.6095 18.2277 24.5551 16.5606C25.5007 14.8936 25.9982 13.01 25.999 11.0934ZM11.0912 5.19869C12.993 5.19696 14.8529 5.75719 16.4374 6.80903C16.9366 7.15448 17.3919 7.55938 17.7932 8.01481L17.8386 8.06415C18.5615 8.78563 18.9926 9.74865 19.049 10.7684C19.1055 11.7882 18.7834 12.793 18.1445 13.5898C17.7258 14.0696 17.2089 14.4539 16.6288 14.7167C16.6094 13.5796 16.2396 12.4763 15.5699 11.5572C14.9001 10.6381 13.9632 9.94802 12.8868 9.58109C11.8104 9.21417 10.647 9.18829 9.55531 9.50697C8.46365 9.82566 7.49691 10.4734 6.78698 11.3618C6.28984 11.942 5.89901 12.6054 5.63248 13.3214C5.06806 11.5986 5.15292 9.82052 5.91864 8.31477C6.34959 7.44814 6.99726 6.70763 7.79879 6.16511C8.60032 5.62259 9.52849 5.29647 10.4932 5.21842C10.6906 5.20658 10.8899 5.19869 11.0912 5.19869ZM14.906 15.1429C13.8068 15.1429 12.7527 14.7063 11.9755 13.9291C11.1983 13.1519 10.7616 12.0978 10.7616 10.9987C10.7616 10.8763 10.7616 10.7717 10.7458 10.675C10.8642 10.675 10.9826 10.6573 11.103 10.6573C12.2022 10.6573 13.2563 11.0939 14.0335 11.8711C14.8107 12.6483 15.2474 13.7024 15.2474 14.8015C15.2474 14.9239 15.2474 15.0285 15.2632 15.1232C15.1467 15.135 15.0264 15.1429 14.906 15.1429ZM9.38017 11.0914C9.39914 12.2289 9.76877 13.3329 10.4386 14.2525C11.1084 15.1721 12.0457 15.8625 13.1226 16.2295C14.1995 16.5965 15.3634 16.6222 16.4554 16.3031C17.5474 15.9839 18.5143 15.3355 19.224 14.4463C19.7193 13.8648 20.11 13.2018 20.3785 12.4867C20.939 14.2095 20.8541 15.9856 20.0983 17.4854C19.663 18.3591 19.0077 19.1044 18.197 19.648C17.3862 20.1916 16.4479 20.5148 15.4743 20.5857C14.13 20.7119 12.7748 20.5246 11.515 20.0388C10.2552 19.5529 9.12525 18.7816 8.21383 17.7854L8.16843 17.7341C7.44872 17.0132 7.0197 16.0526 6.96327 15.0355C6.90685 14.0185 7.22698 13.0163 7.86254 12.2202C8.28128 11.74 8.79811 11.3551 9.37819 11.0914H9.38017ZM11.0932 24.6195C9.16944 24.6216 7.28849 24.0519 5.68926 22.9827C4.09003 21.9135 2.84468 20.3931 2.11142 18.6147C1.37815 16.8362 1.19005 14.8799 1.57102 12.9944C1.95198 11.1088 2.88482 9.37897 4.25103 8.02468C3.70188 9.92878 3.67313 11.9453 4.16779 13.8643C4.66245 15.7832 5.66242 17.5346 7.06364 18.936C8.46485 20.3373 10.2161 21.3375 12.135 21.8325C14.054 22.3274 16.0705 22.2989 17.9748 21.7501C17.0744 22.6602 16.0024 23.3825 14.8207 23.875C13.6391 24.3676 12.3714 24.6206 11.0912 24.6195H11.0932ZM21.7501 17.9788C22.4103 15.6901 22.315 13.2495 21.4785 11.0191C20.6421 8.78879 19.1089 6.88749 17.1064 5.59732C15.1511 4.2393 12.7786 3.61646 10.4084 3.83897C10.3926 3.83803 10.3768 3.83803 10.361 3.83897C9.5689 3.88945 8.7847 4.02643 8.0224 4.24748C8.92403 3.34626 9.99434 2.63145 11.1722 2.14386C12.3501 1.65627 13.6125 1.40545 14.8873 1.40573C16.1622 1.406 17.4245 1.65736 18.6021 2.14546C19.7798 2.63356 20.8498 3.34883 21.7511 4.25044C22.6523 5.15205 23.3671 6.22234 23.8547 7.4002C24.3423 8.57807 24.5932 9.84043 24.5929 11.1152C24.5926 12.39 24.3412 13.6523 23.8531 14.8299C23.365 16.0076 22.6497 17.0776 21.7481 17.9788H21.7501Z" fill="#98F2E2"/>
</g>
</g>
<defs>
<clipPath id="clip0_0_3108">
<rect width="79.6196" height="26" fill="white"/>
</clipPath>
<clipPath id="clip1_0_3108">
<rect width="79.6196" height="26" fill="white"/>
</clipPath>
</defs>
</svg>
