<svg width="15" height="16" viewBox="0 0 15 16" fill="none" xmlns="http://www.w3.org/2000/svg">
<mask id="path-1-inside-1_3004_58" fill="white">
<path d="M2.18164 7.50001C2.18164 4.56286 4.56267 2.18182 7.49982 2.18182C10.437 2.18182 12.818 4.56285 12.818 7.5V11.7489C12.818 12.3395 12.3393 12.8182 11.7487 12.8182H3.25092C2.66037 12.8182 2.18164 12.3395 2.18164 11.7489V7.50001Z"/>
</mask>
<path d="M2.18164 7.50001C2.18164 4.56286 4.56267 2.18182 7.49982 2.18182C10.437 2.18182 12.818 4.56285 12.818 7.5V11.7489C12.818 12.3395 12.3393 12.8182 11.7487 12.8182H3.25092C2.66037 12.8182 2.18164 12.3395 2.18164 11.7489V7.50001Z" stroke="#D2D2DB" stroke-width="3" mask="url(#path-1-inside-1_3004_58)"/>
<path d="M8.24982 0.999996C8.24982 0.585782 7.91403 0.249996 7.49982 0.249996C7.0856 0.249996 6.74982 0.585782 6.74982 0.999996L8.24982 0.999996ZM8.24982 3.36363L8.24982 0.999996L6.74982 0.999996L6.74982 3.36363L8.24982 3.36363Z" fill="#D2D2DB"/>
<path d="M1.5 12.2H13.5" stroke="#D2D2DB" stroke-width="1.5" stroke-linecap="round"/>
<circle cx="7.49911" cy="13.4091" r="1.34091" stroke="#D2D2DB" stroke-width="1.5"/>
</svg>
