<svg width="25" height="24" viewBox="0 0 25 24" fill="none" xmlns="http://www.w3.org/2000/svg">
<path fill-rule="evenodd" clip-rule="evenodd" d="M6.84315 6.34315C7.05748 6.12882 7.34817 6.00841 7.65127 6.00841C7.95438 6.00841 8.24507 6.12882 8.45939 6.34315L12.5 10.3838L16.5406 6.34315C16.7549 6.12882 17.0456 6.00841 17.3487 6.00841C17.6518 6.00841 17.9425 6.12882 18.1569 6.34315C18.3712 6.55747 18.4916 6.84816 18.4916 7.15127C18.4916 7.45437 18.3712 7.74506 18.1569 7.95939L14.1162 12L18.1569 16.0406C18.3712 16.2549 18.4916 16.5456 18.4916 16.8487C18.4916 17.1518 18.3712 17.4425 18.1569 17.6569C17.9425 17.8712 17.6518 17.9916 17.3487 17.9916C17.0456 17.9916 16.7549 17.8712 16.5406 17.6569L12.5 13.6162L8.45939 17.6569C8.24507 17.8712 7.95438 17.9916 7.65127 17.9916C7.34817 17.9916 7.05748 17.8712 6.84315 17.6569C6.62882 17.4425 6.50841 17.1518 6.50841 16.8487C6.50841 16.5456 6.62882 16.2549 6.84315 16.0406L10.8838 12L6.84315 7.95939C6.62882 7.74506 6.50841 7.45437 6.50841 7.15127C6.50841 6.84816 6.62882 6.55747 6.84315 6.34315Z" fill="#BBBBC7"/>
</svg>
